<svg xmlns="http://www.w3.org/2000/svg" fill="#a02b22" style="background-color: white;" viewBox="0 0 50.2 89.15">
    <g id="Layer_2" data-name="Layer 2">
        <g id="Layer_1-2" data-name="Layer 1">
            <path d="M0,89.15V86.94H50.14l.22,2.21Z" />
            <path
                d="M48.1,65.82V85.46H2.2V65.82ZM32.62,75.63a7.5,7.5,0,0,0-15,0,7.5,7.5,0,1,0,15,0Z"
            />
            <path
                d="M42.52,56.75H39.83c0-.46-.06-.88-.06-1.3,0-3.55,0-7.1,0-10.65a3.61,3.61,0,0,0-.47-2,3.08,3.08,0,0,0-2-1.33,3.12,3.12,0,0,0-2,1.39A4.1,4.1,0,0,0,34.83,45c0,3.87,0,7.74,0,11.71H28.9V55.31c0-4.34,0-8.69,0-13a3.75,3.75,0,0,0-2.11-3.61,3.53,3.53,0,0,0-3.85.31,3.75,3.75,0,0,0-1.6,3.29c0,4.35,0,8.7,0,13.05v1.4H15.45c0-.4-.06-.82-.06-1.24,0-3.51,0-7,0-10.53a5.66,5.66,0,0,0-.2-1.65,2.44,2.44,0,0,0-2.39-2,2.67,2.67,0,0,0-2.2,2.24A7.54,7.54,0,0,0,10.52,45c0,3.86,0,7.73,0,11.7H7.7c0-.39-.06-.78-.06-1.17,0-6.22,0-12.44,0-18.67a1.33,1.33,0,0,1,1.08-1.52c2.55-.8,5.06-1.73,7.59-2.56a6.64,6.64,0,0,1,1.87-.3c4.52,0,9,0,13.55,0a11.73,11.73,0,0,1,3.24.65c2.29.71,4.55,1.49,6.79,2.32.38.14.88.64.88,1,0,6.62,0,13.25,0,19.87A2.09,2.09,0,0,1,42.52,56.75Z"
            />
            <path
                d="M9.64,27.37C9,20.54,14.26,13.6,21.19,11.84a24.45,24.45,0,0,0,3.15-1.28,2,2,0,0,0-.6-2.25c-.89-.71-.61-2,.27-2.82a2.36,2.36,0,0,0,.71-1.31c.18-1.38.22-2.78.42-4.18.09,1.09.2,2.18.27,3.27s0,1.87,1.05,2.55c.92.58.74,1.84-.13,2.71a1.3,1.3,0,0,0,.39,2.33,54.87,54.87,0,0,1,6.33,2.73A15.14,15.14,0,0,1,40.72,26c0,.43,0,.86,0,1.42-1.78-.6-3.42-1.2-5.09-1.69a11.6,11.6,0,0,0-2.91-.5c-4.44,0-8.88.05-13.31,0a16.46,16.46,0,0,0-6.77,1.17C11.7,26.73,10.7,27,9.64,27.37Z"
            />
            <path
                d="M44.18,57.77c.48-1.06.81-2,1.29-2.79a1.13,1.13,0,0,1,1.06-.08c.36.39.39,1.18.79,1.42.68.42.38.63.29,1.22a30.45,30.45,0,0,0-.07,4.6h2.62v2.25H.1V62.18H2.78c-.12-1.74-.24-3.33-.34-4.92a1.36,1.36,0,0,1,.07-.67c.15-.37.42-.69.56-1.07a1.11,1.11,0,0,1,1.65-.61,3.67,3.67,0,0,1,.94,2.86Zm-.06,4.33a21.6,21.6,0,0,0,0-2.56c0-.32-.48-.58-.74-.87-.28.27-.77.51-.81.81a20.65,20.65,0,0,0,0,2.62Zm-10.73-.05H35a19.61,19.61,0,0,0,0-2.44c0-.34-.44-.63-.67-.94-.31.29-.83.55-.88.88A15.91,15.91,0,0,0,33.39,62.05Zm-6,0H29a25.6,25.6,0,0,0,0-2.64c0-.28-.53-.76-.72-.72a1.21,1.21,0,0,0-.83.75A20.58,20.58,0,0,0,27.35,62.08Zm-1.45,0a19.91,19.91,0,0,0,0-2.46c-.05-.34-.43-.63-.66-1-.31.29-.83.55-.89.88a16.25,16.25,0,0,0,0,2.53Zm-6,0a19.22,19.22,0,0,0,0-2.53c0-.32-.48-.59-.75-.88-.28.31-.75.6-.8,1a16.77,16.77,0,0,0,0,2.46Zm-9.11,0a18.38,18.38,0,0,0,0-2.49c0-.33-.46-.62-.7-.92-.3.3-.8.56-.85.9a17.36,17.36,0,0,0,0,2.51Zm27.33,0a20.37,20.37,0,0,0,0-2.62,1.23,1.23,0,0,0-.83-.75c-.18,0-.68.43-.71.71a23.61,23.61,0,0,0,0,2.66Zm-21.28,0a23.56,23.56,0,0,0,0-2.67,1,1,0,0,0-.76-.68,1,1,0,0,0-.73.7,23.14,23.14,0,0,0,0,2.65Zm-4.6,0h1.57a19.4,19.4,0,0,0,0-2.54c0-.32-.5-.58-.76-.86-.26.28-.71.55-.75.86A21.32,21.32,0,0,0,12.2,62.07Zm-4.49,0a16.55,16.55,0,0,0,0-2.46c-.06-.35-.52-.64-.79-1-.25.3-.68.58-.72.9a21,21,0,0,0,0,2.52Zm33.37,0a23.92,23.92,0,0,0,0-2.7c0-.27-.46-.62-.77-.69s-.66.37-.69.6c-.08.92,0,1.86,0,2.79Zm-9.1,0a18.73,18.73,0,0,0,0-2.62c0-.3-.54-.53-.83-.8-.23.28-.62.54-.65.83a24.74,24.74,0,0,0,0,2.59Zm-9.1,0a18.56,18.56,0,0,0,0-2.61c0-.31-.53-.55-.81-.81-.24.26-.65.51-.69.8a25.28,25.28,0,0,0,0,2.62Z"
            />
            <path
                d="M6.41,35.68V29.52c3-1,6.19-2.13,9.36-3.19a3.45,3.45,0,0,1,1.07-.09c5.39,0,10.78,0,16.18,0a7.16,7.16,0,0,1,2.1.35c3,1,5.88,2,8.72,3v6.38c-.32-1.35-1.5-1.33-2.43-1.65-.64-.22-1.3-.39-1.92-.67a26.41,26.41,0,0,0-13.07-2.1,11.19,11.19,0,0,1-1.92,0A31.35,31.35,0,0,0,9,34.18a8,8,0,0,0-1,.38C7.48,34.87,7,35.26,6.41,35.68Z"
            />
            <path
                d="M31.51,75.6A6.38,6.38,0,1,1,25,69.28,6.33,6.33,0,0,1,31.51,75.6Zm-10,3.69.44.43c1.61-.74,3.18-2,3.58-3.53A7.53,7.53,0,0,0,25,70.42a15.7,15.7,0,0,0-.38,4.19,2.78,2.78,0,0,1-1,2.4C22.85,77.7,22.22,78.53,21.52,79.29Z"
            />
        </g>
    </g>
</svg>